<mxfile host="app.diagrams.net" agent="Mozilla/5.0 (Windows NT 10.0; Win64; x64) AppleWebKit/537.36 (KHTML, like Gecko) Chrome/135.0.0.0 Safari/537.36" version="26.1.3">
  <diagram name="Page-1" id="ocwtJXI5J2kZ0ff66fyv">
    <mxGraphModel dx="1253" dy="690" grid="1" gridSize="10" guides="1" tooltips="1" connect="1" arrows="1" fold="1" page="1" pageScale="1" pageWidth="850" pageHeight="1100" math="0" shadow="0">
      <root>
        <mxCell id="0" />
        <mxCell id="1" parent="0" />
        <mxCell id="LAY2ft8Qx8DW3SnJ9JVe-1" value="Ansprechs-person" style="rounded=1;whiteSpace=wrap;html=1;fontSize=17;" vertex="1" parent="1">
          <mxGeometry x="120" y="150" width="120" height="60" as="geometry" />
        </mxCell>
        <mxCell id="LAY2ft8Qx8DW3SnJ9JVe-2" value="Termin" style="rounded=1;whiteSpace=wrap;html=1;fontSize=17;" vertex="1" parent="1">
          <mxGeometry x="120" y="230" width="120" height="60" as="geometry" />
        </mxCell>
        <mxCell id="LAY2ft8Qx8DW3SnJ9JVe-3" value="Standort" style="rounded=1;whiteSpace=wrap;html=1;fontSize=17;" vertex="1" parent="1">
          <mxGeometry x="120" y="310" width="120" height="60" as="geometry" />
        </mxCell>
        <mxCell id="LAY2ft8Qx8DW3SnJ9JVe-4" value="Kirchenkreis" style="rounded=1;whiteSpace=wrap;html=1;fontSize=17;" vertex="1" parent="1">
          <mxGeometry x="120" y="390" width="120" height="60" as="geometry" />
        </mxCell>
        <mxCell id="LAY2ft8Qx8DW3SnJ9JVe-5" value="CMS&amp;nbsp;&lt;div&gt;Block&lt;/div&gt;" style="rounded=1;whiteSpace=wrap;html=1;fontSize=17;" vertex="1" parent="1">
          <mxGeometry x="450" y="150" width="120" height="60" as="geometry" />
        </mxCell>
        <mxCell id="LAY2ft8Qx8DW3SnJ9JVe-6" value="Ticket" style="rounded=1;whiteSpace=wrap;html=1;fontSize=17;" vertex="1" parent="1">
          <mxGeometry x="120" y="470" width="120" height="60" as="geometry" />
        </mxCell>
        <mxCell id="LAY2ft8Qx8DW3SnJ9JVe-7" value="Freiwillgen Einsatz" style="rounded=1;whiteSpace=wrap;html=1;fontSize=17;" vertex="1" parent="1">
          <mxGeometry x="120" y="550" width="120" height="60" as="geometry" />
        </mxCell>
        <mxCell id="LAY2ft8Qx8DW3SnJ9JVe-8" value="News&lt;div&gt;Artikel&lt;/div&gt;" style="rounded=1;whiteSpace=wrap;html=1;fontSize=17;" vertex="1" parent="1">
          <mxGeometry x="450" y="310" width="120" height="60" as="geometry" />
        </mxCell>
        <mxCell id="LAY2ft8Qx8DW3SnJ9JVe-9" value="News&amp;nbsp;&lt;div&gt;Kanal&lt;/div&gt;" style="rounded=1;whiteSpace=wrap;html=1;fontSize=17;" vertex="1" parent="1">
          <mxGeometry x="450" y="230" width="120" height="60" as="geometry" />
        </mxCell>
        <mxCell id="LAY2ft8Qx8DW3SnJ9JVe-10" value="CMS&lt;div&gt;Seite&lt;/div&gt;" style="rounded=1;whiteSpace=wrap;html=1;fontSize=17;" vertex="1" parent="1">
          <mxGeometry x="640" y="150" width="120" height="60" as="geometry" />
        </mxCell>
        <mxCell id="LAY2ft8Qx8DW3SnJ9JVe-11" value="CMS&lt;div&gt;Element&lt;/div&gt;" style="rounded=1;whiteSpace=wrap;html=1;fontSize=17;" vertex="1" parent="1">
          <mxGeometry x="450" y="390" width="120" height="60" as="geometry" />
        </mxCell>
        <mxCell id="LAY2ft8Qx8DW3SnJ9JVe-12" value="Formular" style="rounded=1;whiteSpace=wrap;html=1;fontSize=17;" vertex="1" parent="1">
          <mxGeometry x="450" y="470" width="120" height="60" as="geometry" />
        </mxCell>
        <mxCell id="LAY2ft8Qx8DW3SnJ9JVe-13" value="Besucher&lt;div&gt;Konto&lt;/div&gt;" style="rounded=1;whiteSpace=wrap;html=1;fontSize=17;" vertex="1" parent="1">
          <mxGeometry x="120" y="670" width="120" height="60" as="geometry" />
        </mxCell>
        <mxCell id="LAY2ft8Qx8DW3SnJ9JVe-14" value="Admin&lt;div&gt;Konto&lt;/div&gt;" style="rounded=1;whiteSpace=wrap;html=1;fontSize=17;" vertex="1" parent="1">
          <mxGeometry x="390" y="670" width="120" height="60" as="geometry" />
        </mxCell>
        <mxCell id="LAY2ft8Qx8DW3SnJ9JVe-15" value="Admin&amp;nbsp;&lt;div&gt;Rolle&lt;/div&gt;" style="rounded=1;whiteSpace=wrap;html=1;fontSize=17;" vertex="1" parent="1">
          <mxGeometry x="540" y="670" width="120" height="60" as="geometry" />
        </mxCell>
        <mxCell id="LAY2ft8Qx8DW3SnJ9JVe-16" value="Besucher&lt;div&gt;Rolle&lt;/div&gt;" style="rounded=1;whiteSpace=wrap;html=1;fontSize=17;" vertex="1" parent="1">
          <mxGeometry x="120" y="750" width="120" height="60" as="geometry" />
        </mxCell>
      </root>
    </mxGraphModel>
  </diagram>
</mxfile>
